<svg xmlns="http://www.w3.org/2000/svg" fill="none" viewBox="0 0 42 45"><path fill="#fff" d="m41.5551 11.1973-7.2536-5.07977v-5.0686c0-.480246-.3667-.869731-.8189-.869731h-5.0253c-.4522 0-.8189.389485-.8189.869731V6.1204l-7.1733 5.0793c-.2278.1613-.3646.4328-.3646.7236v2.6688c0 .4803.3666.8698.8188.8698h20.185c.4523 0 .8189-.3895.8189-.8698v-2.6688c0-.2922-.1383-.565-.3681-.726Zm-12.279-9.27865h3.3877v3.79748h-3.3877V1.91865ZM21.7382 13.7224v-1.3336l6.967-4.93331h4.5317l7.0486 4.93621v1.3307H21.7382Zm19.3666 7.9192H.818603c-.45223 0-.818847.3895-.818847.8697v21.3502c0 .4803.366617.8698.818847.8698H41.1048c.4522 0 .8189-.3895.8189-.8698V22.5113c0-.4802-.3667-.8697-.8189-.8697ZM20.101 42.9919H1.63737v-9.2836H20.101v9.2836Zm0-11.023H1.63737v-8.5878H20.101v8.5878Zm20.185 11.023H21.7386V29.3956H40.286v13.5963ZM21.7386 27.6562v-4.2751H40.286v4.2751H21.7386Z"/><path fill="#fff" d="M15.4758 25.0273H5.89685c-.45223 0-.81885.3895-.81885.8698 0 .4802.36662.8697.81885.8697h9.57895c.4522 0 .8188-.3895.8188-.8697 0-.4803-.3666-.8698-.8188-.8698Zm0 10.5142H5.89685c-.45223 0-.81885.3895-.81885.8697 0 .4803.36662.8698.81885.8698h9.57895c.4522 0 .8188-.3895.8188-.8698 0-.4802-.3666-.8697-.8188-.8697Zm22.1083-4.4062h-1.8045c-.4523 0-.8189.3894-.8189.8697 0 .4802.3666.8697.8189.8697h.9857v6.9576h-11.409v-6.9576h3.8726c.4523 0 .8189-.3895.8189-.8697 0-.4803-.3666-.8697-.8189-.8697h-4.6914c-.4523 0-.8189.3894-.8189.8697v8.697c0 .4802.3666.8697.8189.8697h13.0466c.4522 0 .8188-.3895.8188-.8697v-8.697c0-.4803-.3666-.8697-.8188-.8697ZM26.9123 25.466c-.0107-.0557-.027-.1104-.0475-.1626-.0205-.0523-.0451-.1034-.0754-.1504-.0295-.0479-.0639-.0922-.1015-.1322-.19-.2018-.4725-.2949-.7386-.2375-.0524.0113-.1039.0279-.1531.0496-.05.0218-.0974.0488-.1416.0801-.0451.0312-.0868.0679-.1245.1078-.0377.04-.0721.0843-.1015.1322-.0295.047-.0549.0982-.0754.1504-.0204.0522-.0368.1069-.0467.1626-.0106.0565-.0163.1131-.0163.1696 0 .0575.0057.1141.0163.1705.0099.0548.0263.1097.0467.1627.0205.0523.0459.1026.0753.1495.0295.048.0639.0923.1015.1323.0377.04.0794.0766.1245.1087.0442.0313.0917.0583.1416.08.0492.0218.1007.0383.1532.0496.0524.0114.1064.0165.1596.0165.2162 0 .4266-.0922.5789-.2548.0377-.04.0721-.0843.1015-.1323.0303-.0469.0549-.0972.0754-.1495.0205-.053.0369-.1079.0475-.1627.0098-.0564.0156-.113.0156-.1704.0001-.0565-.0057-.1132-.0155-.1697Zm4.9019.0002c-.0106-.0557-.0262-.1104-.0467-.1625-.0205-.0523-.0459-.1035-.0753-.1505-.0303-.0478-.0639-.0921-.1015-.1322-.0385-.04-.0802-.0766-.1252-.1078-.0443-.0313-.0917-.0583-.1409-.08-.0499-.0218-.1006-.0383-.1531-.0496-.1056-.0227-.2145-.0227-.3201 0-.0525.0113-.104.0278-.1532.0496-.0499.0217-.0974.0487-.1416.08-.0451.0313-.0868.0679-.1245.1078-.0376.0401-.0721.0844-.1015.1322-.0295.047-.0549.0983-.0753.1505-.0204.0522-.036.1068-.0467.1625-.0106.0566-.0163.1131-.0163.1696 0 .0574.0057.114.0163.1705.0107.0548.0263.1096.0467.1626.0205.0523.0459.1027.0753.1496.0295.0479.0639.0922.1015.1323.0377.0408.0794.0765.1245.1086.0442.0314.0917.0583.1416.0801.0492.0217.1007.0383.1532.0496.0524.0113.1064.0164.1596.0164.0533 0 .1073-.0052.1605-.0164.0525-.0113.1032-.0279.1531-.0496.0492-.0218.0966-.0487.1409-.0801.045-.0322.0867-.0678.1252-.1086.0377-.0401.0713-.0844.1015-.1323.0295-.0469.0549-.0973.0753-.1496.0205-.053.0361-.1078.0467-.1626.0107-.0565.0156-.1131.0156-.1705 0-.0564-.0049-.113-.0156-.1696Zm4.9024 0c-.0106-.0557-.0262-.1104-.0467-.1625-.0205-.0523-.0459-.1035-.0753-.1505-.0303-.0478-.0639-.0921-.1015-.1322-.0385-.04-.0802-.0766-.1244-.1078-.0451-.0313-.0925-.0583-.1417-.08-.0491-.0218-.1007-.0383-.1531-.0496a.761288.761288 0 0 0-.3202 0c-.0524.0113-.1039.0278-.1531.0496-.0491.0217-.0966.0487-.1416.08-.0451.0313-.0868.0679-.1245.1078-.0377.0401-.0721.0844-.1015.1322-.0295.047-.0549.0983-.0753.1505-.0205.0522-.036.1068-.0467.1625-.0106.0566-.0155.1131-.0155.1696 0 .0574.0049.114.0155.1705.0107.0557.0262.1095.0467.1625.0205.0523.0459.1027.0753.1496.0303.0479.0639.0922.1015.1323.1523.1626.3636.2547.5789.2547.0541 0 .1072-.0052.1605-.0164.0524-.0113.104-.0278.1531-.0496.0492-.0218.0966-.0487.1417-.0801.0442-.0321.0859-.0678.1244-.1086.0377-.0401.0713-.0844.1015-.1323.0295-.0469.0549-.0973.0753-.1496.0205-.053.0361-.1078.0467-.1626.0107-.0565.0164-.1131.0164-.1705 0-.0563-.0057-.1129-.0164-.1695Z"/><path fill="#fff" d="M33.3095 31.8048c-.0098-.0558-.0262-.1105-.0467-.1636-.0205-.0522-.0459-.1026-.0753-.1496-.0295-.0479-.0639-.0922-.1015-.1322-.0377-.04-.0794-.0766-.1244-.1078-.0443-.0313-.0917-.0583-.1417-.0801-.0491-.0217-.1007-.0391-.1531-.0496a.764581.764581 0 0 0-.3202 0c-.0516.0105-.1031.0279-.1531.0496-.0491.0218-.0966.0488-.1408.0801-.0451.0313-.0868.0679-.1245.1078-.0377.04-.0721.0844-.1023.1322-.0295.047-.0549.0974-.0753.1496-.0205.0531-.036.1078-.0467.1636-.0106.0557-.0155.113-.0155.1695 0 .0565.0049.114.0155.1696.0107.0557.0262.1105.0467.1626.0205.0531.0459.1035.0753.1505.0303.0478.0647.0921.1023.1321.0377.0401.0794.0766.1245.1078.0442.0313.0917.0583.1408.0801.05.0218.1015.0392.1531.0496.0533.0113.1073.0173.1605.0173.0533 0 .1073-.006.1597-.0173.0524-.0104.104-.0278.1531-.0496.05-.0218.0974-.0488.1417-.0801.045-.0313.0867-.0678.1244-.1078.0377-.04.0721-.0843.1015-.1321.0295-.047.0549-.0974.0753-.1505.0205-.0522.036-.1069.0467-.1626.0106-.0557.0164-.1131.0164-.1696 0-.0565-.0058-.1139-.0164-.1695Z"/></svg>