<svg xmlns="http://www.w3.org/2000/svg" fill="none" viewBox="0 0 70 61"><g fill="#002B45" clip-path="url(#a)"><path d="M68.4508 60.9936H6.90217c-.42934 0-.77778-.3485-.77778-.7778 0-.4293.34844-.7778.77778-.7778H67.6731V8.54335H12.2533c-.4294 0-.7778-.34845-.7778-.77778 0-.42933.3484-.77778.7778-.77778h56.1975c.4294 0 .7778.34845.7778.77778V60.2158c0 .4293-.3484.7778-.7778.7778Z"/><path d="M12.2533 55.6423c-.4293 0-.7778-.3484-.7778-.7778V5.80232c0-2.52156-2.05177-4.57489-4.57488-4.57489-2.52311 0-4.57334 2.05333-4.57334 4.57489V54.8645c0 .4294-.34844.7778-.77777.7778-.42934 0-.777781-.3484-.777781-.7778V5.80232c0-3.38022 2.750221-6.130445 6.130441-6.130445 3.38023 0 6.13043 2.750225 6.13043 6.130445V54.8645c-.0015.4294-.35.7778-.7793.7778Z"/><path d="M6.90217 60.9933c-3.38022 0-6.130441-2.7502-6.130441-6.1304 0-3.3803 2.750221-6.1305 6.130441-6.1305 3.38023 0 6.13043 2.7502 6.13043 6.1305 0 .4293-.3484.7777-.7778.7777-.4293 0-.7777-.3484-.7777-.7777 0-2.5216-2.05181-4.5749-4.57493-4.5749-2.52311 0-4.57489 2.0518-4.57489 4.5749 0 2.5231 2.05178 4.5749 4.57489 4.5749.42934 0 .77778.3484.77778.7777 0 .4294-.34844.7778-.77778.7778ZM63.6019 48.5318H17.1032c-.4293 0-.7778-.3485-.7778-.7778v-9.7487c0-.4293.3485-.7778.7778-.7778h46.4987c.4293 0 .7778.3485.7778.7778v9.7487c0 .4309-.3485.7778-.7778.7778ZM17.881 46.9762h44.9431v-8.1931H17.881v8.1931Z"/><path d="M58.5632 48.5317c-.4294 0-.7778-.3484-.7778-.7778v-4.7071c0-.4293.3484-.7778.7778-.7778.4293 0 .7778.3485.7778.7778v4.7071c0 .4309-.3485.7778-.7778.7778Zm-6.0711 0c-.4293 0-.7777-.3485-.7777-.7778v-2.3536c0-.4293.3484-.7777.7777-.7777.4294 0 .7778.3484.7778.7777v2.3536c0 .4309-.3469.7778-.7778.7778Zm-6.0695 0c-.4294 0-.7778-.3484-.7778-.7778v-4.7071c0-.4293.3484-.7778.7778-.7778.4293 0 .7777.3485.7777.7778v4.7071c0 .4309-.3484.7778-.7777.7778Zm-6.0704 0c-.4293 0-.7777-.3485-.7777-.7778v-2.3536c0-.4293.3484-.7777.7777-.7777.4294 0 .7778.3484.7778.7777v2.3536c0 .4309-.3484.7778-.7778.7778Zm-6.0712 0c-.4294 0-.7778-.3484-.7778-.7778v-4.7071c0-.4293.3484-.7778.7778-.7778.4293 0 .7777.3485.7777.7778v4.7071c0 .4309-.3484.7778-.7777.7778Zm-6.0696 0c-.4293 0-.7777-.3485-.7777-.7778v-2.3536c0-.4293.3484-.7777.7777-.7777.4294 0 .7778.3484.7778.7777v2.3536c0 .4309-.3484.7778-.7778.7778Zm-6.072 0c-.4294 0-.7778-.3484-.7778-.7778v-4.7071c0-.4293.3484-.7778.7778-.7778.4293 0 .7777.3485.7777.7778v4.7071c0 .4309-.3469.7778-.7777.7778ZM57.368 31.4472h-.0435c-.8151-.0109-1.5774-.3391-2.1467-.924-.5351-.5506-.8353-1.2724-.8618-2.016H26.3891c-.028.7451-.3266 1.4654-.8617 2.016-.5678.5849-1.33.9131-2.1452.924-.8166.0109-1.5866-.2955-2.1715-.8633l-2.8933-2.8031c-.6767-.5725-1.0656-1.4171-1.0672-2.3209-.0015-.9084.3858-1.7578 1.064-2.338l2.898-2.8078c1.2056-1.1729 3.1423-1.1464 4.3152.0607.5351.5507.8353 1.2724.8617 2.016H54.316c.028-.7451.3267-1.4653.8618-2.016 1.1744-1.2071 3.1096-1.2336 4.3167-.0591l2.8964 2.8062c.6425.546 1.008 1.2522 1.0593 2.0424.0561.882-.3017 1.8092-.98 2.5418-.0217.0234-.0435.0451-.0684.0654l-.0124.0108-2.8965 2.8063c-.5709.5522-1.3253.8586-2.1249.8586Zm-31.8531-4.4955h29.6769c.2458 0 .4791.1166.6253.3142.1463.1976.1914.4542.1198.6891-.1586.5227-.0218 1.0905.3578 1.4825.2784.2862.6533.448 1.0531.4526.4076.0062.7778-.1446 1.064-.4231l2.9167-2.8264c.0109-.0094.0218-.0203.0311-.0296.3718-.4153.5678-.9053.5398-1.3533-.0234-.3687-.2007-.6938-.5274-.966-.014-.0125-.0295-.0249-.042-.0374l-2.9166-2.8264c-.5927-.5771-1.5431-.5631-2.1187.028-.3811.392-.518.9598-.3578 1.4824.0716.2365.028.4916-.1198.6892-.1462.1975-.378.3142-.6253.3142H25.5149c-.2458 0-.4775-.1167-.6253-.3142-.1478-.1976-.1913-.4543-.1182-.6892.1586-.5226.0217-1.0904-.3578-1.4824-.5756-.5911-1.5245-.6051-2.1171-.0296l-2.9183 2.8265c-.014.014-.028.0264-.042.0373-.3375.2831-.5304.7062-.5304 1.1605.0016.4526.1944.8711.5289 1.148.0155.0124.0311.0264.0451.0404l2.9151 2.8249c.5927.5771 1.5431.5631 2.1187-.028.3811-.392.518-.9598.3578-1.4824-.0716-.2365-.028-.4916.1182-.6892.1462-.1975.378-.3126.6253-.3126Z"/></g><defs><clipPath id="a"><path fill="#fff" d="M0 0h70v60.6667H0z"/></clipPath></defs></svg>