<svg xmlns="http://www.w3.org/2000/svg" fill="none" viewBox="0 0 70 70"><g fill="#002B45"><path d="M64.8318 36.7349H4.75879c-.94244.001-1.84598.3759-2.51239 1.0423-.6664.6664-1.04125 1.5699-1.0423 2.5124v23.7913c.00105.9425.3759 1.846 1.0423 2.5124.66641.6664 1.56995 1.0413 2.51239 1.0423H64.8318c.9424-.001 1.846-.3759 2.5124-1.0423.6664-.6664 1.0412-1.5699 1.0423-2.5124V40.2896c-.0011-.9425-.3759-1.846-1.0423-2.5124-.6664-.6664-1.57-1.0413-2.5124-1.0423ZM45.1655 52.7795H24.7762v-6.9727h20.3893v6.9727Zm-20.3893 1.6406h20.3893V65.995H24.7762V54.4201Zm20.3893-10.2539H24.7762v-5.7907h20.3893v5.7907ZM2.84473 64.0809V40.2896c.00058-.5075.20242-.994.56125-1.3529.35883-.3588.84535-.5606 1.35281-.5612H23.1356V65.995H4.75879c-.50748-.0005-.99401-.2024-1.35285-.5612-.35884-.3589-.56067-.8454-.56121-1.3529Zm63.90087 0c-.0006.5075-.2024.994-.5612 1.3529-.3589.3588-.8454.5607-1.3529.5612H46.8061V38.3755h18.0257c.5074.0006.994.2024 1.3528.5612.3588.3589.5607.8454.5612 1.3529l-.0002 23.7913Zm-20.76-44.2763h21.132c.29-.0003.5681-.1156.7731-.3207.2051-.2051.3204-.4831.3207-.7731V3.27637c-.0003-.28998-.1157-.56799-.3207-.77304-.2051-.20505-.4831-.32039-.7731-.32071H2.12305c-.28998.00032-.56799.11566-.77304.32071-.20505.20505-.32039.48306-.32071.77304V18.7108c.00032.29.11566.568.32071.7731.20505.205.48306.3203.77304.3207H23.2554c.2176 0 .4262-.0865.58-.2403.1539-.1538.2403-.3625.2403-.58v-4.436h5.1378v4.28l-2.531 6.4371c-.0651.1658-.0888.3451-.0689.5221.0199.1771.0827.3466.183.4938.1004.1473.2351.2678.3926.351.1576.0833.333.1269.5112.1269h13.9163c.1782 0 .3537-.0435.5113-.1268.1575-.0833.2923-.2038.3927-.3511.1003-.1472.1632-.3168.183-.4939.0199-.177-.0038-.3563-.069-.5221l-2.5308-6.4374v-4.2796h5.0612v4.436c0 .1077.0212.2144.0625.3139.0412.0995.1016.19.1778.2662.0762.0761.1667.1366.2662.1778.0995.0412.2062.0624.314.0624Zm20.5852-1.6407H46.8059V3.82324h19.7649V18.1639ZM2.66992 3.82324H22.4351V18.1639H2.66992V3.82324ZM28.5031 25.119l2.0894-5.315h8.1323l2.0895 5.315H28.5031Zm9.9603-6.9556h-7.6096v-3.6151h7.6096v3.6151Zm-14.3877-5.2557V3.82324h21.0896v9.08446H24.0757Z"/><path d="M19.3007 40.0161H7.81152c-.21756 0-.42621.0864-.58005.2403-.15383.1538-.24026.3625-.24026.58 0 .2176.08643.4262.24026.5801.15384.1538.36249.2402.58005.2402H19.3007c.2175 0 .4262-.0864.58-.2402a.820246.820246 0 0 0 .2403-.5801c0-.2175-.0864-.4262-.2403-.58-.1538-.1539-.3625-.2403-.58-.2403Zm43.5697 0H51.3811c-.2176 0-.4262.0864-.58.2403-.1539.1538-.2403.3625-.2403.58 0 .2176.0864.4262.2403.5801.1538.1538.3624.2402.58.2402h11.4893c.2176 0 .4262-.0864.58-.2402a.820246.820246 0 0 0 .2403-.5801c0-.2175-.0864-.4262-.2403-.58-.1538-.1539-.3624-.2403-.58-.2403ZM16.3425 15.126H8.92773c-.21756 0-.42621.0864-.58004.2402-.15384.1539-.24027.3625-.24027.5801 0 .2175.08643.4262.24027.58.15383.1539.36248.2403.58004.2403h7.41457c.2175 0 .4262-.0864.58-.2403.1539-.1538.2403-.3625.2403-.58 0-.2176-.0864-.4262-.2403-.5801-.1538-.1538-.3625-.2402-.58-.2402h.0002Zm37.435 1.6406h7.4146c.2176 0 .4262-.0864.5801-.2403.1538-.1538.2402-.3625.2402-.58 0-.2176-.0864-.4262-.2402-.5801-.1539-.1538-.3625-.2402-.5801-.2402h-7.4146c-.2176 0-.4262.0864-.5801.2402-.1538.1539-.2402.3625-.2402.5801 0 .2175.0864.4262.2402.58.1539.1539.3625.2403.5801.2403Z"/></g></svg>