<svg xmlns="http://www.w3.org/2000/svg" fill="none" viewBox="0 0 177 54"><path fill="#FBF6EF" d="M158.892 20.1831c-9.998 0-18.109 7.3848-18.109 16.4862 0 9.1013 8.111 16.4861 18.109 16.4861 9.997 0 18.108-7.3848 18.108-16.4861 0-9.1014-8.111-16.4862-18.108-16.4862Zm.009 28.3698c-7.743 0-13.072-4.7723-13.072-11.8176s5.329-11.8176 13.072-11.8176c7.743 0 13.072 4.7723 13.072 11.8176s-5.329 11.8176-13.072 11.8176ZM34.4059 20.1833c-.0094.2169-.0377.4338-.0377.6507v31.6425c0 .6697 0 .6697-.6696.6697-1.4148 0-2.8295-.0189-4.2442.0094-.4621.0094-.5753-.1415-.5753-.5942.0094-7.3565.0094-14.713.0094-22.0696v-.5941c-.0377-.0095-.0754-.0283-.1132-.0378-.1037.1604-.2263.3113-.3206.4716-3.1501 5.2345-6.3002 10.4689-9.4409 15.7128-.2169.3678-.4621.5282-.896.5093-.7545-.0377-1.509-.0283-2.2635 0-.3301.0094-.5093-.1132-.6697-.3961-3.0841-5.3288-6.17757-10.6576-9.27108-15.9769-.12261-.2169-.27351-.415-.41499-.6319-.04715.0189-.09431.0283-.14147.0471-.00943.1887-.02829.3867-.02829.5754v22.3525c0 .613 0 .6225-.62248.6225H.509298c-.169766 0-.339532.0283-.509298.0377V20.1738h4.62141c.09431.1792.1792.3679.28294.5376 3.92349 6.2059 7.84695 12.4212 11.77045 18.6271.1037.1604.2075.3018.3773.5376.1886-.2263.3678-.3961.4904-.5942 2.9803-4.6685 5.9701-9.3371 8.941-14.0057 1.0752-1.6976 2.1409-3.3953 3.2161-5.0929h4.7063Zm59.3238-.0002c.0848.0566.1697.1509.264.1509 1.6317.0094 3.2256.2452 4.7252.9054 3.9991 1.7543 6.4421 4.7723 7.1401 9.0919 1.009 6.2908-3.32 12.176-9.564 13.2701-1.0091.1792-2.056.198-3.0935.2075-2.6691.0283-5.3476.0094-8.0167.0094h-.6508v.5659c0 2.7351-.0094 5.4702.0094 8.2054 0 .4621-.1414.5847-.5847.5753-1.4336-.0283-2.8577-.0095-4.2913-.0095-.6131 0-.6131 0-.6131-.6319V20.8433c0-.2169-.0283-.4338-.0377-.6508 4.9044-.0094 9.8087-.0094 14.7131-.0094Zm-9.356 18.5894c.1792.0094.3206.0283.4527.0283h9.8087c.1603 0 .3112 0 .4716-.0189 3.8763-.5753 6.4323-4.2347 5.6303-8.0639-.735-3.4896-3.8289-5.357-6.5075-5.3099-3.0935.0472-6.1964.0095-9.2899.0095h-.5659v13.3549ZM59.5874 20.1831c.1132.3018.2075.6225.349.9149 3.5085 7.7337 7.0264 15.4675 10.5349 23.2013 1.2544 2.754 2.5087 5.5174 3.7537 8.2808.066.1509.132.3113.2169.5282h-21.947c.2075-.4056.4056-.7828.5942-1.1506.5376-1.0281 1.0658-2.0655 1.6317-3.0841.0754-.1415.3301-.2452.5093-.2452 3.1878-.0095 6.385-.0095 9.5729-.0095h1.9051c-3.301-7.4603-6.5643-14.8262-9.8747-22.3148-.1415.2452-.2358.3678-.2924.5187-3.5934 8.2809-7.1679 16.5711-10.7707 24.8425-.7639 1.7637-.3395 1.4619-2.2258 1.4807-1.2733.0094-2.5465 0-3.8197 0h-.5471c.3584-.7922.6697-1.509.9903-2.2164 4.4988-10.0445 8.9976-20.089 13.487-30.1335.0849-.198.1226-.4055.1886-.613h5.7438Zm80.6396 0c-1.17 1.792-2.339 3.5745-3.509 5.3571-2.424 3.6688-4.848 7.3471-7.281 11.0065-.226.3395-.226.5753.019.9054 3.65 5.0364 7.281 10.0916 10.922 15.1375.094.1414.188.2829.33.4998-.208.0283-.34.0566-.462.0566-1.679 0-3.367.0189-5.046-.0094-.217 0-.519-.1603-.651-.3395-3.075-4.2159-6.14-8.4318-9.167-12.6759-.397-.547-.774-.7734-1.453-.7545-1.726.0471-3.461.0188-5.187.0188h-.623v.6508c0 4.1781-.009 8.3657.01 12.5438 0 .4433-.113.5942-.576.5848-1.414-.0283-2.829-.0283-4.244 0-.462.0094-.584-.1321-.584-.5848.009-10.5821.009-21.1547.009-31.7368 0-.2169-.028-.4338-.038-.6508h5.471c-.019.1226-.038.2453-.038.3679v13.5812c0 .1321.028.2641.038.4245h.603c1.952 0 3.895-.0189 5.848.0094.433.0094.679-.1509.905-.4999 2.943-4.4988 5.895-8.9881 8.847-13.4775.085-.1321.141-.2735.207-.415h5.65Z"/><path fill="#fff" d="M10.5636 12.723c-.6696.3207-1.32037.547-1.95227.6885-.63191.1415-1.32041.2075-2.05606.2075-2.01833 0-3.60281-.5847-4.75345-1.7637C.660613 10.6858.094727 9.07305.094727 7.017c0-2.07492.631906-3.76315 1.895723-5.06469C3.25426.65077 4.9142 0 6.95139 0c.66963 0 1.28268.056589 1.83913.169766.55646.113177 1.12234.292375 1.69768.537593L9.75253 2.53706c-.46214-.19806-.90542-.33953-1.3487-.42442-.43384-.08488-.91485-.13204-1.42415-.13204-1.3204 0-2.40502.44328-3.25385 1.32041-.84883.87712-1.28267 2.07492-1.28267 3.58395 0 1.48073.38669 2.65023 1.1695 3.50854.78281.8582 1.83913 1.2826 3.16896 1.2826.44328 0 .90542-.0566 1.39586-.1792.49043-.1131.9903-.3018 1.50903-.5659l.87709 1.792ZM24.6925 2.11285h-3.7914V13.4023h-2.2353V2.11285h-3.782V.226562h9.8087V2.11285ZM31.303.226228l2.952 6.092712c.0849.16977.1604.3301.217.48101.0565.1509.1131.32067.1509.49986h.0188c.0472-.16976.0943-.32066.1415-.481.0472-.1509.1037-.32067.1698-.49987L37.2165.216797h2.3673L35.7452 9.68597c-.5847 1.45243-1.1884 2.47103-1.8203 3.06523-.6319.5847-1.4053.8865-2.339.8865-.3867 0-.7356-.0377-1.0374-.1037-.3018-.066-.6131-.1792-.9243-.349l.4999-1.7825c.2263.1037.4432.1792.6507.2263.2075.0472.4339.0661.6885.0661.4433 0 .8206-.1698 1.1507-.5093.3206-.3396.6507-.9054.962-1.70712L28.7471.226228h2.5559ZM43.3379 16.1751V11.45h1.1601c.5376-1.028.9242-2.19754 1.1695-3.50851.2452-1.31097.3772-2.77285.3772-4.39506V.226562h8.394V11.45h1.8297v4.7251h-2.0466v-2.7634h-8.8561v2.7634h-2.0278Zm3.4519-4.7251h5.4325V2.14115h-4.1027v1.61277c0 1.64108-.1037 3.09352-.3206 4.36677-.2075 1.27324-.5471 2.38611-1.0092 3.32931Zm15.1946 1.9617V.226562h2.2069V8.35647c0 .41498 0 .73565-.0094.98087s-.0283.53759-.0566.89596h.0377c.0849-.1603.1698-.30178.2453-.42439.0754-.12261.198-.3018.3584-.52816L71.0291.226562h2.2164V13.4117h-2.2069V5.27239c0-.40556 0-.72622.0094-.97144s.0283-.54703.0566-.90542h-.0377c-.0849.16033-.1698.30181-.2453.42441-.0754.12261-.198.30181-.3489.52817l-6.2625 9.05419h-2.2258v.0094Zm26.3036-.0003h-2.2541V8.23353h-1.3298c-.415 0-.7734.14147-1.0941.43385-.3206.29237-.5941.70735-.8205 1.23551l-1.509 3.50851H78.668l1.8768-3.97065c.217-.46214.481-.84883.7923-1.1695.3018-.32067.6413-.53759.9903-.6602v-.03772c-.9432-.2075-1.6694-.61305-2.1787-1.22609-.5093-.61305-.7545-1.36756-.7545-2.28241 0-1.1695.4055-2.10322 1.2261-2.80114.8205-.69793 1.9712-1.046893 3.4708-1.046893h4.1969V13.4114Zm-2.2541-6.95098V2.0465h-1.7071c-.8111 0-1.443.18863-1.8863.55645-.4432.36783-.6696.90542-.6696 1.59392 0 .72622.2264 1.28268.6791 1.66936.4527.39613 1.094.58475 1.9146.58475h1.6693v.00944Zm27.4741 6.95128h-2.905l-4.489-5.82861c-.076-.09431-.142-.18863-.198-.28294-.057-.09432-.114-.19806-.151-.31124h-.047v6.42279h-2.236V.226562h2.236V6.37587h.047c.037-.07546.085-.16034.151-.25465.056-.09432.132-.20749.207-.3301l4.301-5.564558h2.66l-5.112 6.262478 5.536 6.92266ZM119.695.226228l2.952 6.092712c.085.16977.16.3301.217.48101.056.1509.113.32067.15.49986h.019c.047-.16976.095-.32066.142-.481.047-.1509.104-.32067.17-.49987l2.263-6.102143h2.367l-3.838 9.469173c-.585 1.45243-1.189 2.47103-1.82 3.06523-.632.5847-1.406.8865-2.339.8865-.387 0-.736-.0377-1.038-.1037-.302-.066-.613-.1792-.924-.349l.5-1.7825c.226.1037.443.1792.65.2263.208.0472.434.0661.689.0661.443 0 .82-.1698 1.151-.5093.32-.3396.65-.9054.962-1.70712L117.139.216797h2.556v.009431ZM143.029 13.4114h-2.679l-2.669-4.68744c-.047-.07545-.094-.17919-.142-.31123-.047-.13204-.094-.28295-.141-.46215h-.038c-.037.09432-.075.19806-.132.33011-.047.13204-.113.28294-.188.46214l-2.707 4.65917h-2.707l4.32-6.61148-3.962-6.573723h2.745l2.292 4.300743c.075.1509.16.31123.226.49043.076.16977.142.34897.208.52816h.037c.066-.16976.142-.33953.217-.51873.076-.16976.161-.34896.245-.53759l2.462-4.263013h2.518l-4.046 6.535993 4.141 6.65861Zm15.891.0003h-2.245v-5.706h-6.159v5.6966h-2.235V.226562h2.235V5.76282h6.159V.226562h2.245V13.4117Zm6.725 0V.226562h2.206V8.35647c0 .41498 0 .73565-.009.98087s-.028.53759-.057.89596h.038c.085-.1603.17-.30178.245-.42439.076-.12261.198-.3018.359-.52816l6.262-9.054188h2.217V13.4117h-2.207V5.27239c0-.40556 0-.72622.009-.97144.01-.24522.028-.54703.057-.90542h-.038c-.085.16033-.17.30181-.245.42441-.076.12261-.198.30181-.349.52817l-6.263 9.05419h-2.225v.0094Z"/></svg>