<svg xmlns="http://www.w3.org/2000/svg" fill="none" viewBox="0 0 36 36"><g clip-path="url(#a)"><path fill="#FBF6EF" d="M18 36c9.9411 0 18-8.0589 18-18 0-9.94113-8.0589-18-18-18C8.05887 0 0 8.05887 0 18c0 9.9411 8.05887 18 18 18Z"/><path fill="#002B45" fill-rule="evenodd" d="M8.14853 17.8099c5.24737-2.2862 8.74647-3.7934 10.49717-4.5215 4.9988-2.0792 6.0375-2.4404 6.7145-2.4523.1489-.0026.4818.0343.6975.2093.3199.2596.3217.8231.2862 1.196-.2709 2.8462-1.443 9.7533-2.0393 12.9411-.2524 1.3489-.7492 1.8012-1.2301 1.8454-1.0453.0962-1.8391-.6908-2.8515-1.3544-1.5842-1.0385-2.4792-1.685-4.017-2.6983-1.7772-1.1712-.6251-1.8148.3877-2.8667.2651-.2753 4.8706-4.4645 4.9598-4.8445.0111-.0475.0215-.2247-.0838-.3182-.1052-.0936-.2606-.0616-.3726-.0362-.1589.0361-2.6898 1.7089-7.5925 5.0184-.7184.4933-1.3691.7336-1.952.721-.6428-.0138-1.87899-.3634-2.79805-.6621-1.12725-.3664-2.02317-.5602-1.94512-1.1825.04064-.3242.48698-.6556 1.3391-.9945Z" clip-rule="evenodd"/></g><defs><clipPath id="a"><path fill="#fff" d="M0 0h36v36H0z"/></clipPath></defs></svg>