<svg xmlns="http://www.w3.org/2000/svg" fill="none" viewBox="0 0 70 70"><path fill="#002B45" d="M61.7349 6.08725h-9.589V3.48312C52.1459 1.56248 50.4957 0 48.4673 0c-2.0269 0-3.6756 1.56248-3.6756 3.48312v2.60413H29.0943V3.48312C29.0943 1.56248 27.4442 0 25.4158 0c-2.027 0-3.6757 1.56248-3.6757 3.48312v2.60413h-9.5875C9.31136 6.08725 7 8.27582 7 10.9661v46.5108c0 2.6903 2.31136 4.8788 5.1526 4.8788h9.3623c.6309.8626 1.3499 1.6828 2.1612 2.4511C27.3345 68.2694 32.1405 70 36.9437 70c4.8046 0 9.6093-1.732 13.2662-5.1932.8041-.7615 1.5259-1.5817 2.1612-2.4511h9.3652c2.8412 0 5.1526-2.1885 5.1526-4.8788V10.9661c-.0015-2.69028-2.3128-4.87885-5.154-4.87885ZM47.1016 3.48312c0-.71631.6135-1.29865 1.3672-1.29865.7565 0 1.3715.58234 1.3715 1.29865V10.88c0 .7135-.615 1.2945-1.3715 1.2945-.7537 0-1.3672-.581-1.3672-1.2945V3.48312Zm-23.053 0c0-.71631.6136-1.29865 1.3672-1.29865.7565 0 1.3715.58234 1.3715 1.29865V10.88c0 .7135-.615 1.2945-1.3715 1.2945-.7536 0-1.3672-.581-1.3672-1.2945V3.48312Zm-11.896 4.78997h9.589V10.88c0 1.9192 1.6487 3.4803 3.6756 3.4803 2.0284 0 3.6786-1.5611 3.6786-3.4803V8.27309h15.6987V10.88c0 1.9192 1.6487 3.4803 3.6757 3.4803 2.0284 0 3.6785-1.5611 3.6785-3.4803V8.27309h9.5891c1.5678 0 2.8441 1.20843 2.8441 2.69301v7.297H9.30847v-7.297c0-1.48595 1.27483-2.69301 2.84413-2.69301ZM48.577 63.2607c-3.2079 3.0375-7.4206 4.5548-11.6333 4.5548s-8.4283-1.5187-11.6362-4.5548c-.8214-.7792-1.5375-1.6199-2.1496-2.5085-.0289-.0519-.0621-.0998-.0997-.1462-4.0481-6.0258-3.2988-14.128 2.2479-19.38 3.0953-2.9308 7.2271-4.5453 11.6362-4.5453 4.409 0 8.5394 1.6145 11.6333 4.5453 3.0953 2.9295 4.8003 6.8405 4.8003 11.0153 0 3.0224-.8937 5.9082-2.5626 8.3824-.0216.0288-.0433.0588-.0621.0903-.6207.9104-1.3469 1.7634-2.1742 2.5467Zm13.1579-3.0908h-8.001c1.2748-2.4278 1.949-5.1263 1.949-7.9272 0-4.7586-1.9447-9.2191-5.4759-12.56-3.5299-3.3437-8.2407-5.1851-13.2662-5.1851-5.0255 0-9.7377 1.8414-13.269 5.1851-5.8426 5.5322-7.0178 13.8381-3.5241 20.4886h-7.998c-1.5679 0-2.84412-1.2085-2.84412-2.693V20.4476H64.5775v37.0293c.0015 1.4846-1.2733 2.693-2.8426 2.693Zm-12.6526-7.9286c0 .6042-.5168 1.0922-1.1535 1.0922H36.9437c-.6381 0-1.1535-.4894-1.1535-1.0922V41.8412c0-.6043.5169-1.0923 1.1535-1.0923.6367 0 1.1535.4894 1.1535 1.0923v9.3079h9.8302c.6381 0 1.1549.4894 1.1549 1.0922Z"/></svg>