<svg xmlns="http://www.w3.org/2000/svg" fill="none" viewBox="0 0 70 70"><g clip-path="url(#a)"><path fill="#fff" d="M5.79688 70H60.6307c1.4861-.0017 2.9109-.5928 3.9618-1.6437 1.0508-1.0509 1.6419-2.4756 1.6436-3.9618V52.8478h.7014c.7612-.0009 1.491-.3036 2.0292-.8419.5383-.5382.841-1.268.8419-2.0292V36.6349c-.0009-.7612-.3036-1.491-.8419-2.0292-.5382-.5383-1.268-.8411-2.0292-.8419h-.7005v-11.547c-.0017-1.4862-.5929-2.9109-1.6437-3.9618-1.0509-1.0509-2.4757-1.642-3.9618-1.6437h-3.2649L53.6108 2.59654c-.2413-.89684-.8286-1.661319-1.6329-2.125702-.8044-.464383-1.7601-.590745-2.6574-.351363L7.51105 11.3222c-.89684.2416-1.66126.829-2.12564 1.6335-.46438.8044-.59081 1.7601-.35156 2.6576l.27343 1.0215c-1.3956.124-2.69438.7654-3.64105 1.7983C.71957 19.466.193492 20.8157.191406 22.2168v42.1777c.001701 1.4862.592822 2.9109 1.643684 3.9618C2.88595 69.4072 4.31073 69.9983 5.79688 70ZM68.168 36.6349v13.3418c-.0004.3262-.1302.639-.3608.8697-.2307.2307-.5435.3604-.8697.3608H53.9671c-2.0955 0-4.1053-.8325-5.5871-2.3143-1.4818-1.4818-2.3143-3.4915-2.3143-5.5871 0-2.0956.8325-4.1053 2.3143-5.5871 1.4818-1.4818 3.4916-2.3143 5.5871-2.3143h12.9704c.3262.0004.639.1302.8696.3608.2307.2307.3605.5434.3609.8697ZM55.6678 16.6113H30.4724L53.98 10.3128l1.6878 6.2985ZM6.80641 13.7758c.12143-.2123.28375-.3984.47756-.5475.19382-.1492.41529-.2584.6516-.3214L49.745 1.70404c.4772-.12713.9853-.05983 1.413.18713.4276.24697.7399.65344.8683 1.1303l1.529 5.70664-29.4216 7.88319H7l-.38145-1.4232c-.06359-.2362-.07974-.4826-.0475-.725.03225-.2424.11224-.476.23536-.6873Zm-4.97438 8.441c.00123-1.0512.41935-2.0589 1.16264-2.8022.74328-.7433 1.75104-1.1614 2.80221-1.1627H60.6307c1.0511.0013 2.0589.4194 2.8022 1.1627.7433.7433 1.1614 1.751 1.1626 2.8022v11.5467H53.9671c-2.5307 0-4.9577 1.0053-6.7472 2.7948-1.7895 1.7895-2.7948 4.2165-2.7948 6.7472 0 2.5307 1.0053 4.9578 2.7948 6.7472 1.7895 1.7895 4.2165 2.7948 6.7472 2.7948h10.6288v11.547c-.0012 1.0512-.4193 2.059-1.1626 2.8023-.7433.7433-1.751 1.1614-2.8022 1.1626H5.79688c-1.05118-.0012-2.05896-.4193-2.80225-1.1626-.7433-.7433-1.1614-1.7511-1.1626-2.8023V22.2168ZM62.6172 46.9035c.7116 0 1.4071-.211 1.9988-.6064.5916-.3953 1.0527-.9572 1.325-1.6146s.3435-1.3808.2047-2.0787c-.1389-.6979-.4815-1.3389-.9847-1.8421-.5032-.5031-1.1442-.8457-1.8421-.9846-.6979-.1388-1.4213-.0675-2.0787.2048s-1.2193.7335-1.6146 1.3251c-.3953.5916-.6063 1.2872-.6063 1.9988.001.9539.3805 1.8684 1.055 2.5429.6745.6745 1.589 1.0538 2.5429 1.0548Zm0-5.5548c.3871 0 .7654.1148 1.0873.3299.3218.215.5726.5207.7207.8783.1481.3576.1869.7511.1114 1.1308-.0756.3796-.262.7283-.5357 1.002-.2737.2737-.6224.4601-1.0021.5356-.3796.0755-.7731.0368-1.1307-.1114-.3577-.1481-.6633-.399-.8784-.7208-.215-.3219-.3298-.7002-.3298-1.0873.0006-.5189.2071-1.0164.574-1.3833.3669-.3669.8644-.5733 1.3833-.5738ZM11.1426 59.9424c0-.2176.0864-.4262.2402-.58a.820246.820246 0 0 1 .5801-.2403h19.1406c.2176 0 .4262.0864.5801.2403.1538.1538.2402.3624.2402.58 0 .2176-.0864.4262-.2402.5801-.1539.1538-.3625.2402-.5801.2402H11.9629c-.1078.0001-.2146-.021-.3142-.0621-.0996-.0412-.1902-.1016-.2664-.1778-.0763-.0761-.1368-.1666-.1781-.2662a.819577.819577 0 0 1-.0626-.3141l.001-.0001Z"/></g><defs><clipPath id="a"><path fill="#fff" d="M0 0h70v70H0z"/></clipPath></defs></svg>