<svg xmlns="http://www.w3.org/2000/svg" fill="none" viewBox="0 0 36 36"><g clip-path="url(#a)"><path fill="#FBF6EF" d="M18.0045 0h-.009C8.07075 0 0 8.073 0 18c0 3.9375 1.269 7.587 3.42675 10.5503l-2.24325 6.687 6.91875-2.2118C10.9485 34.911 14.3438 36 18.0045 36 27.9292 36 36 27.9247 36 18c0-9.92475-8.0708-18-17.9955-18Z"/><path fill="#002B45" d="M28.4782 25.4184c-.4342 1.2263-2.1577 2.2433-3.5325 2.5403-.9405.2002-2.169.36-6.3045-1.3545-5.2897-2.1915-8.69621-7.5668-8.96171-7.9155-.25425-.3488-2.1375-2.8463-2.1375-5.4293 0-2.583 1.31175-3.84074 1.8405-4.38074.43425-.44325 1.15201-.64575 1.84051-.64575.2227 0 .423.01125.603.02025.5287.0225.7942.054 1.143.88875.4342 1.04629 1.4917 3.62929 1.6177 3.89479.1283.2655.2565.6255.0765.9742-.1687.36-.3172.5198-.5827.8258-.2655.306-.5175.54-.783.8685-.243.2857-.5175.5917-.2115 1.1205.306.5175 1.3635 2.2432 2.9205 3.6292 2.0092 1.7888 3.6382 2.3603 4.221 2.6033.4342.18.9517.1372 1.269-.2003.4027-.4342.9-1.1542 1.4062-1.863.36-.5085.8145-.5715 1.2915-.3915.486.1688 3.0578 1.44 3.5865 1.7033.5288.2655.8775.3915 1.0058.6142.126.2228.126 1.269-.3083 2.4975Z"/></g><defs><clipPath id="a"><path fill="#fff" d="M0 0h36v36H0z"/></clipPath></defs></svg>